<svg width="170" height="34" viewBox="0 0 170 34" fill="none" xmlns="http://www.w3.org/2000/svg">
<path fill-rule="evenodd" clip-rule="evenodd" d="M129.93 10.9341H132.03V21.0861H137.636V22.8757H129.93V10.9341Z" fill="#270F34"/>
<path fill-rule="evenodd" clip-rule="evenodd" d="M77.611 10.7921H79.7481V15.7261L79.7634 15.7381L84.0571 10.7921H86.4127L82.8367 15.087L86.8147 22.7338H84.6198L81.482 16.6985L79.7481 18.8344V22.7338H77.611V10.7921Z" fill="#270F34"/>
<path fill-rule="evenodd" clip-rule="evenodd" d="M169.993 22.842H168.435C167.973 22.842 167.547 22.5962 167.317 22.1963L162.981 14.7025V16.326H162.988V19.3535H162.981V22.842H160.843V10.9004H162.458C162.795 10.9004 163.106 11.0785 163.277 11.3691L167.857 19.1339V10.8993H170V22.7677L169.993 22.842Z" fill="#270F34"/>
<path fill-rule="evenodd" clip-rule="evenodd" d="M121.194 22.842H119.625C119.164 22.842 118.738 22.5962 118.507 22.1963L114.171 14.7025V16.326H114.179V19.3535H114.171V22.842H112.035V10.9004H113.649C113.985 10.9004 114.298 11.0785 114.469 11.3691L119.048 19.1339V10.8993H121.191V22.7677L121.194 22.842Z" fill="#270F34"/>
<path fill-rule="evenodd" clip-rule="evenodd" d="M48.2565 12.5817H44.4948V10.7921H54.1355V12.5817H50.375V22.7338H48.2565V12.5817Z" fill="#270F34"/>
<path fill-rule="evenodd" clip-rule="evenodd" d="M102.842 21.0557V22.8475H95.1352V10.8993H97.234V10.9058H102.455V12.69H97.234V15.6202H101.941V17.412H97.234V21.0557H102.842Z" fill="#270F34"/>
<path fill-rule="evenodd" clip-rule="evenodd" d="M65.4645 21.2035C63.8551 21.2035 62.9046 19.2074 62.9046 16.7426C62.9046 14.2788 63.8562 12.2827 65.4645 12.2827C67.1459 12.2827 68.0309 14.2788 68.0309 16.7426C68.0309 19.2074 67.1459 21.2035 65.4645 21.2035ZM69.8222 14.125C69.5873 13.3646 69.2661 12.7211 68.8641 12.2021C68.4697 11.6897 67.9616 11.2756 67.3793 10.9948C66.1676 10.4387 64.7746 10.4387 63.563 10.9948C62.9839 11.2778 62.4781 11.6908 62.0858 12.2021C61.6761 12.72 61.3615 13.3646 61.1277 14.125C60.8939 14.8854 60.7835 15.7486 60.7835 16.7144C60.7835 17.6791 60.8939 18.5575 61.1277 19.3245C61.3615 20.0915 61.6761 20.7437 62.0858 21.2846C63.4876 23.1572 66.1425 23.5374 68.0141 22.1357C68.3364 21.8931 68.6226 21.6069 68.8641 21.2846C69.2945 20.6913 69.6179 20.0281 69.8222 19.3245C70.056 18.5564 70.1664 17.6868 70.1664 16.7144C70.1664 15.7409 70.056 14.8854 69.8222 14.125Z" fill="#270F34"/>
<path fill-rule="evenodd" clip-rule="evenodd" d="M148.542 21.2035C146.932 21.2035 145.983 19.2074 145.983 16.7426C145.983 14.2788 146.933 12.2827 148.542 12.2827C150.223 12.2827 151.108 14.2788 151.108 16.7426C151.108 19.2074 150.223 21.2035 148.542 21.2035ZM152.9 14.125C152.665 13.3646 152.343 12.7211 151.941 12.2021C151.547 11.6897 151.039 11.2756 150.457 10.9948C149.246 10.4387 147.852 10.4387 146.64 10.9948C146.061 11.2778 145.555 11.6908 145.163 12.2021C144.753 12.72 144.439 13.3646 144.205 14.125C143.971 14.8854 143.861 15.7486 143.861 16.7144C143.861 17.6791 143.971 18.5575 144.205 19.3245C144.439 20.0915 144.753 20.7437 145.163 21.2846C146.565 23.1572 149.22 23.5374 151.091 22.1357C151.414 21.8931 151.701 21.6069 151.941 21.2846C152.372 20.6913 152.696 20.0281 152.9 19.3245C153.134 18.5564 153.244 17.6868 153.244 16.7144C153.244 15.7409 153.131 14.8854 152.9 14.125Z" fill="#270F34"/>
<mask id="mask0_393_13609" style="mask-type:luminance" maskUnits="userSpaceOnUse" x="0" y="0" width="31" height="34">
<path fill-rule="evenodd" clip-rule="evenodd" d="M16.418 0.685205C15.8327 0.684173 15.2473 0.716152 14.6651 0.781141C6.42232 1.64869 0 8.58082 0 17.0025C0 26.0112 7.34809 33.3157 16.418 33.3147C19.0428 33.3198 21.6302 32.6937 23.9612 31.4929C24.6255 31.1505 24.338 30.155 23.5917 30.1767H23.5627C16.9961 30.3417 11.101 27.5823 8.6994 22.4678C7.2578 19.4061 7.31696 16.5713 7.98742 14.3308C7.99261 14.3101 7.99676 14.2936 8.00195 14.272C8.34652 12.8928 8.99 11.6188 9.93757 10.6285C10.0102 10.5408 10.0901 10.4583 10.1742 10.3819C10.2271 10.3262 10.2842 10.2736 10.3455 10.2272C10.3672 10.2024 10.3911 10.1797 10.415 10.1581C10.4368 10.1416 10.4513 10.1261 10.4741 10.1106C10.5157 10.0683 10.5624 10.0302 10.6132 9.99819C12.2313 8.68913 14.2561 7.97735 16.3422 7.9856C21.2399 7.9856 25.2129 11.788 25.2129 16.4816C25.2129 18.097 24.7344 19.6753 23.8356 21.0205C27.7515 19.6774 30.5517 16.0865 30.5506 11.8694C30.5506 9.47003 29.6425 7.27485 28.1303 5.57586C27.4962 4.9301 26.8102 4.33901 26.0764 3.80776L26.0712 3.80157C23.2762 1.7766 19.9063 0.685205 16.4481 0.685205H16.418Z" fill="white"/>
</mask>
<g mask="url(#mask0_393_13609)">
<path fill-rule="evenodd" clip-rule="evenodd" d="M16.418 0.685205C15.8327 0.684173 15.2473 0.716152 14.6651 0.781141C6.42232 1.64869 0 8.58082 0 17.0025C0 26.0112 7.34809 33.3157 16.418 33.3147C19.0428 33.3198 21.6302 32.6937 23.9612 31.4929C24.6255 31.1505 24.338 30.155 23.5917 30.1767H23.5627C16.9961 30.3417 11.101 27.5823 8.6994 22.4678C7.2578 19.4061 7.31696 16.5713 7.98742 14.3308C7.99261 14.3101 7.99676 14.2936 8.00195 14.272C8.34652 12.8928 8.99 11.6188 9.93757 10.6285C10.0102 10.5408 10.0901 10.4583 10.1742 10.3819C10.2271 10.3262 10.2842 10.2736 10.3455 10.2272C10.3672 10.2024 10.3911 10.1797 10.415 10.1581C10.4368 10.1416 10.4513 10.1261 10.4741 10.1106C10.5157 10.0683 10.5624 10.0302 10.6132 9.99819C12.2313 8.68913 14.2561 7.97735 16.3422 7.9856C21.2399 7.9856 25.2129 11.788 25.2129 16.4816C25.2129 18.097 24.7344 19.6753 23.8356 21.0205C27.7515 19.6774 30.5517 16.0865 30.5506 11.8694C30.5506 9.47003 29.6425 7.27485 28.1303 5.57586C27.4962 4.9301 26.8102 4.33901 26.0764 3.80776L26.0712 3.80157C23.2762 1.7766 19.9063 0.685205 16.4481 0.685205H16.418Z" fill="url(#paint0_linear_393_13609)"/>
</g>
<mask id="mask1_393_13609" style="mask-type:luminance" maskUnits="userSpaceOnUse" x="8" y="5" width="25" height="24">
<path fill-rule="evenodd" clip-rule="evenodd" d="M30.4572 11.7756C30.4572 15.9886 27.7909 19.5805 24.0546 20.9246C23.0053 21.3073 21.8969 21.5012 20.7791 21.4981C17.186 21.4981 14.0537 19.533 12.3828 16.6085C11.9759 15.8957 11.6563 14.6847 11.4394 13.6541C11.2339 12.6772 9.95417 12.4235 9.38957 13.2477C9.19445 13.5293 9.04915 13.8429 8.96093 14.173C8.95055 14.2215 8.93499 14.2689 8.92565 14.3174C8.92046 14.3308 8.91838 14.3463 8.91942 14.3597C8.65061 15.4625 8.57277 16.6023 8.69109 17.7319C8.69005 17.7463 8.69109 17.7608 8.6942 17.7742C8.74713 18.2869 8.8395 18.7944 8.97131 19.2937C9.13114 19.9467 9.35221 20.5862 9.62932 21.2C11.6718 25.7606 16.2457 28.5644 22.2726 28.0775C22.8673 28.029 23.4599 27.9444 24.0442 27.8247C29.0167 26.7798 32.5994 22.2914 32.6295 17.0036V16.9066C32.6315 16.2506 32.5921 15.5955 32.5112 14.9456C32.1157 11.4074 30.5797 8.09191 28.1355 5.49133C29.6342 7.24603 30.4572 9.47318 30.4572 11.7756Z" fill="white"/>
</mask>
<g mask="url(#mask1_393_13609)">
<path fill-rule="evenodd" clip-rule="evenodd" d="M30.4572 11.7756C30.4572 15.9886 27.7909 19.5805 24.0546 20.9246C23.0053 21.3073 21.8969 21.5012 20.7791 21.4981C17.186 21.4981 14.0537 19.533 12.3828 16.6085C11.9759 15.8957 11.6563 14.6847 11.4394 13.6541C11.2339 12.6772 9.95417 12.4235 9.38957 13.2477C9.19445 13.5293 9.04915 13.8429 8.96093 14.173C8.95055 14.2215 8.93499 14.2689 8.92565 14.3174C8.92046 14.3308 8.91838 14.3463 8.91942 14.3597C8.65061 15.4625 8.57277 16.6023 8.69109 17.7319C8.69005 17.7463 8.69109 17.7608 8.6942 17.7742C8.74713 18.2869 8.8395 18.7944 8.97131 19.2937C9.13114 19.9467 9.35221 20.5862 9.62932 21.2C11.6718 25.7606 16.2457 28.5644 22.2726 28.0775C22.8673 28.029 23.4599 27.9444 24.0442 27.8247C29.0167 26.7798 32.5994 22.2914 32.6295 17.0036V16.9066C32.6315 16.2506 32.5921 15.5955 32.5112 14.9456C32.1157 11.4074 30.5797 8.09191 28.1355 5.49133C29.6342 7.24603 30.4572 9.47318 30.4572 11.7756Z" fill="url(#paint1_linear_393_13609)"/>
</g>
<defs>
<linearGradient id="paint0_linear_393_13609" x1="0" y1="33.3155" x2="30.5512" y2="33.3155" gradientUnits="userSpaceOnUse">
<stop stop-color="#2D2D4B"/>
<stop offset="1" stop-color="#1D1D3A"/>
</linearGradient>
<linearGradient id="paint1_linear_393_13609" x1="8.63712" y1="28.1321" x2="32.6291" y2="28.1321" gradientUnits="userSpaceOnUse">
<stop stop-color="#95A2D4"/>
<stop offset="1" stop-color="#584DA0"/>
</linearGradient>
</defs>
</svg>
