<svg width="153" height="37" viewBox="0 0 153 37" fill="none" xmlns="http://www.w3.org/2000/svg">
<mask id="mask0_1750_3426" style="mask-type:alpha" maskUnits="userSpaceOnUse" x="50" y="9" width="103" height="19">
<path fill-rule="evenodd" clip-rule="evenodd" d="M50.1533 9.125H152.925V27.7854H50.1533V9.125Z" fill="white"/>
</mask>
<g mask="url(#mask0_1750_3426)">
<path fill-rule="evenodd" clip-rule="evenodd" d="M149.812 19.8683C149.45 18.1372 148.243 17.2971 146.82 17.2971C145.155 17.2971 144.021 18.2388 143.659 19.8683H149.812ZM143.708 22.4139C144.118 24.0179 145.252 24.8069 147.11 24.8069C148.292 24.8069 149.209 24.374 149.812 23.5342L152.322 25.0615C151.14 26.8692 149.378 27.7854 147.061 27.7854C145.059 27.7854 143.467 27.1491 142.26 25.8764C141.053 24.6034 140.45 22.9995 140.45 21.0646C140.45 19.1552 141.053 17.5513 142.236 16.2786C143.418 14.9804 144.963 14.3438 146.821 14.3438C148.582 14.3438 150.054 14.9804 151.188 16.2786C152.346 17.5769 152.925 19.1552 152.925 21.0646C152.925 21.4974 152.877 21.9303 152.804 22.4139H143.708ZM140.113 12.4092C138.399 12.2821 137.555 12.9947 137.555 14.5731V14.7006H140.113V17.8574H137.555V27.4296H134.442V17.8574H132.705V14.7006H134.442V14.5731C134.442 10.9835 136.348 9.02339 140.113 9.25243V12.4092ZM124.815 24.6538C125.78 24.6538 126.576 24.3229 127.204 23.661C127.855 22.9736 128.169 22.1078 128.169 21.0642C128.169 20.0206 127.855 19.1549 127.204 18.4934C126.576 17.8056 125.78 17.4746 124.815 17.4746C123.85 17.4746 123.054 17.8056 122.426 18.4934C121.799 19.1549 121.485 20.0206 121.485 21.0642C121.485 22.1078 121.799 22.9736 122.426 23.661C123.054 24.3229 123.85 24.6538 124.815 24.6538ZM128.169 14.7003H131.282V27.4293H128.169V25.9272C127.228 27.1747 125.925 27.7854 124.236 27.7854C122.619 27.7854 121.244 27.1491 120.086 25.8509C118.951 24.5523 118.372 22.9487 118.372 21.0646C118.372 19.1808 118.951 17.6025 120.086 16.3042C121.244 15.0057 122.619 14.3438 124.236 14.3438C125.925 14.3438 127.228 14.9549 128.169 16.2023V14.7003ZM113.251 19.7156C115.012 20.0973 117.304 20.9882 117.28 23.7121C117.28 25.0107 116.822 26.0287 115.881 26.7418C114.964 27.4292 113.806 27.7854 112.431 27.7854C109.945 27.7854 108.256 26.7673 107.363 24.7561L110.066 23.1522C110.428 24.2469 111.2 24.8069 112.431 24.8069C113.54 24.8069 114.095 24.4507 114.095 23.7121C114.095 23.025 113.13 22.643 111.899 22.312C110.114 21.8284 107.87 21.0394 107.87 18.3914C107.87 17.144 108.304 16.1512 109.173 15.4385C110.066 14.7003 111.152 14.3438 112.455 14.3438C114.409 14.3438 116.098 15.3114 117.039 17.0421L114.385 18.5697C113.999 17.704 113.347 17.2715 112.455 17.2715C111.659 17.2715 111.055 17.6788 111.055 18.3151C111.055 19.0026 112.02 19.3846 113.251 19.7156ZM102.32 27.4301H105.433V14.7012H102.32V27.4301ZM101.958 11.1615C101.958 10.0667 102.827 9.125 103.864 9.125C104.926 9.125 105.794 10.0667 105.794 11.1615C105.794 12.2562 104.926 13.1727 103.864 13.1727C102.827 13.1727 101.958 12.2562 101.958 11.1615ZM94.1404 24.6538C95.1056 24.6538 95.9019 24.3229 96.5293 23.661C97.1804 22.9736 97.4945 22.1078 97.4945 21.0642C97.4945 20.0206 97.1804 19.1549 96.5293 18.4934C95.9019 17.8056 95.1056 17.4746 94.1404 17.4746C93.1752 17.4746 92.3793 17.8056 91.7515 18.4934C91.1244 19.1549 90.8106 20.0206 90.8106 21.0642C90.8106 22.1078 91.1244 22.9736 91.7515 23.661C92.3793 24.3229 93.1752 24.6538 94.1404 24.6538ZM98.8699 16.305C100.028 17.6032 100.607 19.1816 100.607 21.0653C100.607 22.9494 100.028 24.553 98.8699 25.8516C97.7358 27.1498 96.3364 27.7862 94.7198 27.7862C93.0306 27.7862 91.7277 27.1754 90.8109 25.928V27.43H87.6982V9.60938H90.8109V16.2031C91.7277 14.9556 93.0306 14.3445 94.7198 14.3445C96.3364 14.3445 97.7358 15.0064 98.8699 16.305ZM85.5268 19.5881V27.4292H82.4142V19.8171C82.4142 18.2899 81.6662 17.3986 80.3873 17.3986C78.9635 17.3986 78.1432 18.417 78.1432 20.2755V27.4292H75.0306V19.8171C75.0306 18.2899 74.2826 17.3986 73.0037 17.3986C71.6282 17.3986 70.7357 18.417 70.7357 20.2755V27.4292H67.623V14.7003H70.7357V16.0496C71.4594 14.9037 72.5694 14.3438 74.0894 14.3438C75.5615 14.3438 76.6715 14.9549 77.3712 16.1767C78.1675 14.9549 79.3738 14.3438 80.9664 14.3438C83.7414 14.3438 85.5268 16.4058 85.5268 19.5881ZM55.8242 20.9374H60.4569L58.1405 13.6562L55.8242 20.9374ZM62.5072 27.43L61.4941 24.2221H54.762L53.7485 27.43H50.1533L56.0648 9.60938H60.1909L66.1268 27.43H62.5072Z" fill="white"/>
</g>
<path fill-rule="evenodd" clip-rule="evenodd" d="M23.7788 11.1181C20.0948 11.1181 15.8058 13.0821 14.0738 16.48C13.3488 17.9025 13.1051 19.4458 13.0235 20.3282C13.0031 20.5478 12.7198 20.6074 12.6178 20.4135C12.0935 19.4176 11.1885 17.4098 11.1885 15.4162C11.1885 11.1704 13.0005 7.22416 16.6028 5.01537C17.5975 4.40569 18.6235 4.0356 19.7441 3.76742C20.8151 3.51129 21.9315 3.24931 22.7771 2.47506C23.2551 2.03716 23.5398 1.42128 24.0141 0.972702C24.5908 0.427391 25.3131 0.179177 26.0921 0.279702C26.2515 0.300358 26.4091 0.33444 26.5638 0.377472C28.2448 0.843948 28.4798 2.30155 28.5588 3.64487C28.5961 4.27728 28.8311 4.81123 29.1118 5.22365C30.4561 7.19834 33.1051 8.12854 35.3165 12.8642C36.6618 15.745 36.9298 18.7786 36.9555 20.5206C36.9595 20.7836 36.6041 20.8483 36.5188 20.6001C35.5125 17.6705 32.3088 11.1181 23.7788 11.1181Z" fill="#ED1C24"/>
<path fill-rule="evenodd" clip-rule="evenodd" d="M10.5414 21.2723C12.3903 24.5175 16.196 27.3287 19.9253 27.1812C21.4865 27.1195 22.9079 26.5739 23.6915 26.2115C23.8866 26.1213 24.0789 26.3417 23.9669 26.5268C23.392 27.4792 22.156 29.2651 20.4784 30.2467C16.9046 32.3377 12.6737 32.6846 9.0063 30.599C7.99416 30.0233 7.16772 29.3014 6.37942 28.4463C5.6266 27.6291 4.84533 26.7747 3.76928 26.4112C3.16066 26.2054 2.49951 26.2583 1.88386 26.0613C1.13572 25.8219 0.564238 25.3075 0.257752 24.5718C0.195184 24.4216 0.144661 24.2659 0.103171 24.1083C-0.347857 22.3977 0.761312 21.4727 1.85208 20.7417C2.36567 20.3972 2.69759 19.9276 2.9037 19.4773C3.89107 17.3205 3.34435 14.5286 6.22049 10.2486C7.97007 7.6449 10.3888 5.91499 11.8423 5.03444C12.0618 4.90152 12.2947 5.18261 12.1284 5.37994C10.1673 7.70933 6.26031 13.7579 10.5414 21.2723Z" fill="#ED1C24"/>
<path fill-rule="evenodd" clip-rule="evenodd" d="M26.0303 27.552C27.9281 24.2744 28.4408 19.4823 26.3974 16.2517C25.5423 14.8991 24.3341 13.915 23.614 13.4035C23.435 13.2764 23.5295 12.9943 23.7493 13.0001C24.8798 13.0289 27.0805 13.2223 28.8028 14.2136C32.471 16.3253 34.9468 19.8997 34.9993 24.2029C35.0137 25.3907 34.8049 26.4878 34.4591 27.6184C34.1287 28.6984 33.7801 29.8219 34.0137 30.9594C34.1452 31.6024 34.5309 32.1619 34.6741 32.8067C34.8482 33.5908 34.6902 34.3572 34.2022 35.0002C34.1023 35.1317 33.9917 35.255 33.8749 35.3714C32.6059 36.6346 31.2254 36.1185 30.024 35.521C29.4584 35.2396 28.8763 35.1831 28.3756 35.2276C25.9771 35.4416 23.8087 37.3355 18.5783 36.9479C15.3964 36.7119 12.6376 35.4419 11.1197 34.5982C10.8903 34.4708 11.0173 34.1223 11.2756 34.1702C14.3252 34.7321 21.6362 35.1406 26.0303 27.552Z" fill="#ED1C24"/>
<path fill-rule="evenodd" clip-rule="evenodd" d="M20.5002 15.5C18.015 15.5 16 17.5147 16 20.0002C16 22.4853 18.015 24.5 20.5002 24.5C22.9853 24.5 25 22.4853 25 20.0002C25 17.5147 22.9853 15.5 20.5002 15.5Z" fill="#ED1C24"/>
</svg>
